<?xml version="1.0" encoding="utf-8"?>
<!-- Generator: Adobe Illustrator 18.1.1, SVG Export Plug-In . SVG Version: 6.00 Build 0)  -->
<svg version="1.1" id="圖層_1" xmlns="http://www.w3.org/2000/svg" xmlns:xlink="http://www.w3.org/1999/xlink" x="0px" y="0px"
	 viewBox="0 64 400 136" enable-background="new 0 64 400 136" xml:space="preserve">
<path fill="#559049" d="M56.4,74.5c0,0,6.5,4.5,6.1,13.6s-2,9,2,12.6c4,3.5,19.6,9,19.6,10.7c-0.1,1.7-2.7,27.4-2.7,27.4
	s17.6-24.3,17.1-31.8C97.9,99.4,86.7,89.8,56.4,74.5"/>
<path fill="#559049" d="M111.1,125c-0.1,4.2-3.7,7.4-7.8,7.2c-4.2-0.1-7.4-3.7-7.2-7.8c0.1-4.2,3.7-7.4,7.8-7.2
	C108,117.3,111.3,120.8,111.1,125"/>
<path fill="#DB8D49" d="M58.6,189.5c0,0-6.5-4.5-6.1-13.6c0.4-9.1,2-9-2-12.6c-4-3.5-19.6-9-19.6-10.7c0.1-1.7,2.8-27.4,2.8-27.4
	S16.1,149.5,16.7,157C17.1,164.6,28.3,174.2,58.6,189.5"/>
<path fill="#DB8D49" d="M3.9,139.1c0.1-4.2,3.7-7.4,7.8-7.2s7.4,3.7,7.2,7.8c-0.1,4.2-3.7,7.4-7.8,7.2C7,146.7,3.8,143.2,3.9,139.1"
	/>
<path fill="#C03D45" d="M0,133.1c0,0,4.5-6.5,13.6-6.1c9.1,0.4,9,2,12.6-2c3.5-4,9-19.6,10.7-19.6c1.7,0.1,27.4,2.8,27.4,2.8
	S40,90.7,32.6,91.2C24.9,91.7,15.3,102.9,0,133.1"/>
<path fill="#C03D45" d="M50.5,78.4c4.2,0.1,7.4,3.7,7.2,7.8c-0.1,4.2-3.7,7.4-7.8,7.2c-4.1-0.2-7.4-3.7-7.2-7.8
	C42.8,81.5,46.3,78.2,50.5,78.4"/>
<path fill="#2B578B" d="M115.1,130.9c0,0-4.5,6.5-13.6,6.1c-9.1-0.4-9-2-12.6,2c-3.5,4-9,19.6-10.7,19.6c-1.7-0.1-27.4-2.8-27.4-2.8
	s24.3,17.6,31.8,17.1C90.1,172.5,99.7,161.2,115.1,130.9"/>
<path fill="#2B578B" d="M64.6,185.6c-4.2-0.1-7.4-3.7-7.2-7.8c0.1-4.2,3.7-7.4,7.8-7.2c4.2,0.1,7.4,3.7,7.2,7.8
	C72.2,182.6,68.8,185.8,64.6,185.6"/>
<path fill="#707175" d="M262.7,164.2v1.8h0.6c3.7,0,7.4,0,11.1,0c0.9,0,1.2,0.2,1.2,1.2c0,1.4,0,2.6,0,4h3v2.9h-3v1.3
	c0,0.9,0,1.7,0,2.5c0,1-0.2,1.2-1.2,1.2c-3.6,0-7.4,0-11,0c-0.2,0-0.4,0-0.7,0c0,0.9,0,1.8,0,2.6c0,0.4-0.1,0.9-0.2,1.2
	c-0.4,1.4-1.4,2.2-2.7,2.5c-2.5,0.5-4.8-0.1-7.1-0.7v-3.4c1,0.2,1.9,0.5,2.7,0.7c1,0.1,2,0.2,3,0.2c0.7-0.1,1-0.5,1-1.2
	c0-0.6,0-1.2,0-1.8h-0.7c-3.8,0-7.6,0-11.5,0c-0.6,0-0.7-0.1-0.7-0.7c0.1-0.7,0-1.5,0-2.3h12.8v-2.2h-15.8v-2.9h15.8
	c0-0.7,0-1.4,0-2c0-0.1-0.3-0.2-0.4-0.2c-1,0-2.2,0-3.1,0c-2.9,0-5.8,0-8.7,0h-0.7V166h0.6c3.8,0,7.6,0,11.6,0
	c0.9,0,0.8,0.1,0.8-0.9c0-0.3,0-0.6,0-0.9h-0.7c-3.9,0-7.7,0-11.8,0c-0.7,0-0.7-0.1-0.7-0.7c0-2.2,0-4.2,0-6.3
	c0-0.7,0.1-0.7,0.7-0.7c3.9,0,7.8,0,11.8,0h0.7v-2h-0.7c-4.8,0-9.5,0-14.3,0c-0.7,0-0.7,0-0.7-0.7s0-1.5,0-2.3h15.7V150h3.2v1.7
	h15.5v2.9h-15.5v2h0.6c3.8,0,7.7,0,11.7,0c0.7,0,0.7,0,0.7,0.7c0,2.1,0,4.1,0,6.2c0,0.8,0,0.8-0.8,0.8c-3.8,0-7.6,0-11.6,0
	L262.7,164.2L262.7,164.2z M272.2,171c0-0.1,0.1-0.2,0.1-0.2c0-0.4,0-0.9,0-1.4c0-0.7,0-0.7-0.7-0.7c-2.7,0-5.6,0-8.3,0
	c-0.2,0-0.4,0-0.6,0v2.3L272.2,171L272.2,171z M259.4,159.3h-9.8c0,0.2,0,0.5,0,0.7c0,1.5,0,1.5,1.4,1.5c2.6,0,5.3,0,7.9,0
	c0.2,0,0.5,0.1,0.5-0.3C259.4,160.4,259.4,159.8,259.4,159.3 M262.7,161.4h0.6h4.7c1.3,0,2.5,0,3.8,0c0.2,0,0.5-0.2,0.5-0.2
	c0.1-0.6,0-1.3,0-1.9h-9.7L262.7,161.4L262.7,161.4z M272.2,174.1h-9.5v2.1h2.7c2.2,0,4.2,0,6.3,0c0.2,0,0.6,0.1,0.6-0.4
	C272.2,175.2,272.2,174.6,272.2,174.1"/>
<path fill="#707175" d="M191.1,183.4v1.7h-3.4c0-0.2,0-0.4,0-0.6c0-7.9,0-15.8,0-23.7c0-0.1,0-0.2,0-0.3c0.1-0.9,0.4-1.2,1.2-1.2
	c3,0,6.1,0,9.1,0c0.5,0,1.1,0.1,1.5-0.1c0.3-0.2,0.4-0.9,0.5-1.4c0.3-1.1,0.6-2.2,0.9-3.3c-0.3,0-0.6,0-0.7,0c-4.5,0-8.9,0-13.4,0
	c-0.8,0-0.8,0-0.8-0.8s0-1.6,0-2.5h34.3v3.1c-0.2,0-0.5,0-0.7,0c-4.9,0-9.8,0-14.7,0c-0.4,0-0.6,0.1-0.7,0.6c-0.3,1.3-0.6,2.5-1,3.7
	c-0.1,0.2-0.1,0.3-0.1,0.6h0.7c4.5,0,8.9,0,13.3,0c1,0,1.4,0.3,1.4,1.4c0,7.9,0,15.8,0,23.7v0.6H215v-1.7L191.1,183.4L191.1,183.4z
	 M191.1,170h0.6c7.5,0,15.1,0,22.5,0c0.1,0,0.2,0,0.3,0c0.2,0,0.4-0.1,0.4-0.4c0-2.2,0-4.4,0-6.6c0-0.4-0.2-0.5-0.5-0.5
	c-0.2,0-0.3,0-0.5,0c-7.4,0-14.6,0-22,0c-0.1,0-0.2,0-0.3,0c-0.6,0-0.7,0.1-0.7,0.7c0,1,0,1.9,0,2.8L191.1,170L191.1,170z
	 M215,180.1v-0.6c0-2,0-3.8,0-5.8c0-0.5-0.1-0.6-0.6-0.6c-7.5,0-15.2,0-22.7,0h-0.6v6.9L215,180.1L215,180.1z"/>
<path fill="#707175" d="M377.9,179.6c1.7,0.4,3.2,0.9,4.9,1.2c1.2,0.2,2.3,0.2,3.5,0.2c1.2,0,2-0.7,2.5-1.7c0.9-1.5,1.2-3,1.3-4.6
	c0.4-5.1,0.3-10.2,0.3-15.2c0-0.2-0.1-0.4-0.1-0.6c-0.1-0.4-0.2-0.6-0.6-0.6c-4.1,0-8.2,0-12.3,0c-0.1,0-0.1,0-0.2,0
	c-0.1,0.8-0.2,1.6-0.3,2.4c-0.9,6-2.5,11.8-6.2,16.6c-2.2,2.8-4.7,5.3-7.6,7.4c-0.9-0.9-1.8-1.7-2.6-2.5c9-5.4,12.6-13.8,13.3-23.8
	h-12.1V155h12.2c0-0.2,0.1-0.4,0.1-0.6c0-1.3,0-2.5,0-3.8c0-0.4,0.1-0.6,0.6-0.6c1,0,2,0,3,0v5h0.7c4.7,0,9.5,0,14.2,0
	c1.3,0,1.7,0.4,1.7,1.7c-0.1,4.8-0.1,9.5-0.1,14.2c-0.1,3.1-0.3,6.2-1.4,9.2c-0.2,0.5-0.4,1-0.6,1.4c-1,2.2-2.7,3-5,3.2
	c-2.9,0.2-5.7-0.4-8.4-1.2c-0.1-0.1-0.3-0.2-0.3-0.3C377.9,182.1,377.9,180.9,377.9,179.6"/>
<g>
	<path fill="#707175" d="M129.1,158.7v-2.9h0.6c3.3,0,6.7,0,10,0c0.4,0,0.7-0.1,1-0.5c0.4-0.5,0.8-0.9,1.3-1.5c-0.7,0-1.3,0-1.8,0
		c-2.5-0.1-5-0.1-7.4-0.1c-0.4,0-0.6-0.1-0.6-0.6c-0.1-0.8-0.1-1.6-0.2-2.5c8.6,0.2,17.1,0.1,25.7-0.8c0.1,0.9,0.2,1.9,0.4,2.9
		c-1.1,0.1-2.2,0.2-3.2,0.3c-2.8,0.2-5.8,0.4-8.6,0.6c-0.2,0-0.6,0.2-0.7,0.4c-0.4,0.5-0.9,1-1.4,1.6h17.3v2.9h-8.1
		c0,0.1,0,0.1-0.1,0.1c2.7,2.5,6.1,3.8,9.6,5.1c-0.6,0.9-1.2,1.7-1.9,2.5c-0.1,0.1-0.4,0.1-0.5-0.1c-2-1-3.8-2-5.7-2.9
		c-0.1-0.1-0.3-0.2-0.5-0.3c0,1.3,0,2.5,0,3.7c0,1.6,0.2,1.4-1.4,1.4c-5.6,0-11.1,0-16.6,0c-0.8,0-0.8,0-0.8-0.8c0-1.4,0-2.7,0-4.2
		c-2.2,1.1-4.3,2.3-6.6,3.3c-0.6-1-1.1-2-1.7-2.9c3.3-1.2,6.5-2.6,9.4-4.8L129.1,158.7L129.1,158.7L129.1,158.7z M138.6,163.5
		c0,0.6,0,1,0,1.5c-0.1,0.5,0.2,0.7,0.7,0.7c3.8,0,7.6,0,11.6,0c0.1,0,0.1,0,0.2,0c0.3,0,0.5-0.1,0.5-0.5s-0.1-0.7,0-1.1
		c0.1-0.5-0.2-0.7-0.7-0.7c-3.8,0-7.7,0-11.7,0L138.6,163.5L138.6,163.5L138.6,163.5z M138.9,160.8h12.3c-0.8-0.7-1.5-1.4-2.2-2
		c-0.1-0.1-0.3-0.1-0.4-0.1c-2.4,0-4.6,0-7,0c-0.2,0-0.4,0-0.5,0.1C140.4,159.4,139.8,160,138.9,160.8"/>
	<path fill="#707175" d="M132.8,184.8h-3.2c0-0.2,0-0.4,0-0.6c0-4.5,0-8.9,0-13.4c0-0.8,0.2-1,1-1c9.8,0,19.6,0,29.4,0
		c0.8,0,1,0.2,1,1c0,3.7,0,7.4,0,11c0,2.2-1.3,3.5-3.4,3.5c-1.2,0-2.4-0.2-3.5-0.3c-0.1,0-0.3-0.2-0.4-0.4c-0.1-0.4-0.1-0.9-0.1-1.4
		c0-0.7,0-0.7-0.7-0.7c-5.3,0-10.7,0-16,0c-0.1,0-0.3,0-0.4,0c-0.4,0.1-0.5-0.1-0.5-0.6c0-2.3,0-4.4,0-6.7c0-0.4,0.1-0.5,0.5-0.5
		c0.1,0,0.1,0,0.2,0c5.7,0,11.4,0,17.1,0c0.7,0,0.7,0,0.7,0.7c0,1.9,0,3.7,0,5.6c0,0.4,0.1,0.6,0.4,0.6s0.7,0.2,1,0.2
		c0.9,0.1,1.5-0.3,1.8-1.2c0.1-0.2,0.1-0.5,0.1-0.8c0-2.3,0-4.5,0-6.7c0-0.7,0-0.7-0.7-0.7c-7.8,0-15.7,0-23.6,0
		c-0.7,0-0.7,0-0.7,0.7c0,3.5,0,7.2,0,10.7L132.8,184.8L132.8,184.8z M145.1,180c2,0,3.8,0,5.8,0c0.4,0,0.6-0.1,0.6-0.6
		c0-0.5-0.1-0.9,0-1.3c0.1-0.6-0.2-0.7-0.7-0.7c-3,0-6,0-9,0c-0.8,0-1.7,0-2.5,0c-0.3,0-0.4,0.1-0.4,0.4c0,0.5,0,1,0,1.5
		c0,0.4,0.1,0.6,0.6,0.6C141.4,180,143.3,180,145.1,180"/>
</g>
<path fill="#707175" d="M336.5,183.2c-1,0.7-2,1.4-2.8,2.1c-0.9-0.9-1.8-1.8-2.6-2.5c-3-2.8-5.8-6-7.9-9.5c-1.7-2.5-2.9-5.4-3.8-8.3
	c-0.1-0.1-0.1-0.2-0.2-0.6c-2.3,8.9-7.2,15.9-14.9,20.9c-0.7-0.9-1.5-1.7-2.3-2.5c0.9-0.6,1.8-1.2,2.7-1.8
	c5.2-3.7,8.6-8.7,10.6-14.8c1.1-3.4,1.8-6.9,2-10.4c0.1-1.8,0.2-3.5,0.2-5.4h3.2c0,0.2,0,0.4,0.1,0.7c0.1,2.2,0.1,4.2,0.2,6.4
	c0.4,5,2,9.5,4.6,13.8c2.8,4.6,6.6,8.3,10.6,11.8C336.2,182.9,336.3,183,336.5,183.2"/>
<path fill="#333535" d="M142.5,78.8h9.8v34.3c0,5.5-0.4,9.3-1.3,11.5s-2.3,4-4.3,5.3s-4.4,2-7.2,2c-5.7,0-10.5-2.5-14.6-7.5l7.2-6.7
	c1.6,1.8,2.9,3,4,3.6c1.1,0.6,2.2,1,3.2,1c1.1,0,1.8-0.4,2.3-1.3c0.5-0.9,0.8-2.9,0.8-5.9L142.5,78.8L142.5,78.8z"/>
<path fill="#333535" d="M181.2,91.3c3.7,0,7,0.9,10.1,2.7s5.7,4.3,7.5,7.4s2.7,6.5,2.7,10c0,3.7-0.9,7-2.7,10.1
	c-1.8,3.1-4.2,5.6-7.4,7.5c-3.1,1.8-6.6,2.7-10.2,2.7c-5.6,0-10.1-2-14.1-5.9c-3.9-3.9-5.9-8.6-5.9-14.2c0-6,2.2-10.9,6.7-15
	C171.7,93,176.1,91.3,181.2,91.3 M181.3,100.3c-3,0-5.5,1-7.5,3.1c-2,2.1-3,4.8-3,8c0,3.4,1,6.1,2.9,8c2,2,4.5,3.1,7.5,3.1
	s5.6-1,7.5-3.1c2-2.1,3-4.8,3-8s-1-6-2.9-8C186.8,101.3,184.3,100.3,181.3,100.3"/>
<path fill="#333535" d="M218.7,77.4v19.1c1.8-1.8,3.7-3.1,5.7-3.9s4.2-1.3,6.5-1.3c5,0,9.2,1.9,12.7,5.7s5.3,8.6,5.3,14.5
	c0,5.7-1.8,10.4-5.5,14.3c-3.7,3.9-8,5.8-12.8,5.8c-2.2,0-4.3-0.4-6.2-1.2s-3.8-2.1-5.7-3.9v4.1h-9.5V77.4H218.7z M229,100.2
	c-3.1,0-5.6,1-7.6,3.1c-2,2-3,4.8-3,8c0,3.4,1,6.2,3,8.2c2,2.1,4.5,3.1,7.6,3.1c2.9,0,5.4-1.1,7.5-3.2c2-2.1,3-4.9,3-8.1s-1-6-3-8
	C234.4,101.2,232,100.2,229,100.2"/>
<polygon fill="#333535" points="252.3,92.3 257.4,92.3 269.1,120.1 281.3,92.3 282.3,92.3 294.6,120.1 306.5,92.3 311.7,92.3 
	295.1,130.5 294.1,130.5 281.8,103.2 269.6,130.5 268.7,130.5 "/>
<path fill="#333535" d="M319.2,76.5c1.1,0,2.1,0.4,2.9,1.2s1.2,1.8,1.2,2.9s-0.4,2-1.2,2.9c-0.8,0.9-1.8,1.2-2.9,1.2s-2-0.4-2.9-1.2
	s-1.2-1.8-1.2-2.9c0-1.2,0.4-2.1,1.2-2.9C317.1,76.9,318.1,76.5,319.2,76.5 M316.7,92.3h5v38.3h-5V92.3z"/>
<path fill="#333535" d="M351.1,96.4l-3.2,3.3c-2.6-2.6-5.3-3.9-7.8-3.9c-1.6,0-3,0.5-4.2,1.6c-1.2,1.1-1.8,2.3-1.8,3.7
	c0,1.2,0.4,2.4,1.4,3.6c1,1.2,2.9,2.5,6,4.1c3.7,1.9,6.2,3.7,7.5,5.6c1.3,1.8,2,3.8,2,6.1c0,3.1-1.1,5.9-3.4,8
	c-2.2,2.2-5,3.3-8.2,3.3c-2.2,0-4.3-0.5-6.4-1.5c-2-1-3.7-2.3-5-4l3.1-3.5c2.6,2.9,5.2,4.3,8,4.3c2,0,3.7-0.7,5-1.9
	c1.3-1.2,2.1-2.8,2.1-4.5c0-1.4-0.4-2.7-1.4-3.8c-1-1.1-3-2.5-6.2-4.1c-3.5-1.8-5.9-3.6-7.1-5.3c-1.2-1.8-1.9-3.7-1.9-6
	c0-2.9,1-5.3,3-7.3c2-2,4.5-2.9,7.6-2.9C344,91.3,347.6,93,351.1,96.4"/>
<path fill="#333535" d="M392.1,117.9l4.2,2.2c-1.4,2.7-2.9,4.9-4.8,6.5c-1.8,1.7-3.8,2.9-6.1,3.8c-2.3,0.9-4.8,1.3-7.6,1.3
	c-6.3,0-11.1-2-14.7-6.2c-3.6-4.1-5.3-8.7-5.3-13.9c0-4.9,1.5-9.1,4.5-13c3.8-4.9,8.8-7.3,15.2-7.3c6.6,0,11.7,2.5,15.6,7.5
	c2.8,3.5,4.2,7.9,4.2,13.1h-34.5c0.1,4.5,1.5,8,4.3,10.9s6.2,4.3,10.1,4.3c2,0,3.9-0.4,5.7-1c1.8-0.6,3.4-1.6,4.8-2.7
	C389.3,122.2,390.7,120.4,392.1,117.9 M392.1,107.6c-0.7-2.6-1.6-4.8-2.9-6.4c-1.2-1.6-2.9-2.9-5-3.8c-2-1-4.2-1.5-6.6-1.5
	c-3.8,0-7,1.2-9.6,3.7c-2,1.8-3.5,4.5-4.5,8C363.5,107.6,392.1,107.6,392.1,107.6z"/>
</svg>
